<svg width="25" height="25" viewBox="0 0 25 25" fill="none" xmlns="http://www.w3.org/2000/svg">
<circle cx="12.5" cy="12.5" r="12.5" fill="white"/>
<path d="M12.4999 16.2631C14.0259 16.2631 15.263 15.026 15.263 13.5C15.263 11.9739 14.0259 10.7368 12.4999 10.7368C10.9738 10.7368 9.73669 11.9739 9.73669 13.5C9.73669 15.026 10.9738 16.2631 12.4999 16.2631Z" fill="black"/>
<path d="M10.25 6L8.8775 7.49123H6.5C5.675 7.49123 5 8.16228 5 8.98246V17.9298C5 18.75 5.675 19.4211 6.5 19.4211H18.5C19.325 19.4211 20 18.75 20 17.9298V8.98246C20 8.16228 19.325 7.49123 18.5 7.49123H16.1225L14.75 6H10.25ZM12.5 17.1842C10.43 17.1842 8.75 15.514 8.75 13.4561C8.75 11.3982 10.43 9.72807 12.5 9.72807C14.57 9.72807 16.25 11.3982 16.25 13.4561C16.25 15.514 14.57 17.1842 12.5 17.1842Z" fill="black"/>
</svg>
